<svg xmlns="http://www.w3.org/2000/svg" width="800" height="520" viewBox="0 0 800 520" fill="none"><rect width="800" height="520" rx="40" fill="#06101d"/><path d="M180 332c0-42 34-76 76-76h288c42 0 76 34 76 76v96H180v-96Z" fill="#0d1f33"/><path d="M312 232h176v96H312z" fill="#56B4FF" opacity="0.18"/><circle cx="400" cy="238" r="46" fill="#7AF1B5"/><circle cx="498" cy="294" r="56" fill="#56B4FF" opacity="0.22"/><circle cx="302" cy="294" r="56" fill="#56B4FF" opacity="0.22"/><path d="M310 328h180v98H310z" fill="#0f1d35"/><path d="M360 370h80v60h-80z" fill="#56B4FF" opacity="0.4"/><path d="M325 420h150v24H325z" fill="#7AF1B5" opacity="0.6"/><path d="M240 180h70v20h-70zM490 180h70v20h-70z" fill="#fff" opacity="0.15"/></svg>