<svg xmlns="http://www.w3.org/2000/svg" width="800" height="520" viewBox="0 0 800 520" fill="none"><rect width="800" height="520" rx="40" fill="#0B1626"/><path d="M600 205c0 60-45 108-100 108s-100-48-100-108 45-108 100-108 100 48 100 108Z" fill="#1F6EFF" opacity="0.18"/><path d="M488 159c0 36.984-30.016 67-67 67s-67-30.016-67-67 30.016-67 67-67 67 30.016 67 67Z" fill="#56B4FF"/><path d="M473 160.5c0 21.769-17.65 39.419-39.419 39.419-21.769 0-39.419-17.65-39.419-39.419 0-21.769 17.65-39.419 39.419-39.419 21.769 0 39.419 17.65 39.419 39.419Z" fill="#020612" opacity="0.15"/><path d="M324 216h-63a20 20 0 0 1-20-20v-58a20 20 0 0 1 20-20h63a20 20 0 0 1 20 20v58a20 20 0 0 1-20 20Z" fill="#7AF1B5" opacity="0.25"/><path d="M270 120h70v130h-70z" fill="#56B4FF"/><path d="M379 219l26 56 44-21-26-56z" fill="#FFF" opacity="0.2"/><path d="M618 220l-46 18-20-52 46-18z" fill="#fff" opacity="0.2"/><path d="M386 344c-52 0-95 43-95 95v13h190v-13c0-52-43-95-95-95Z" fill="#1F6EFF" opacity="0.16"/><path d="M496 241c-28 0-50 22-50 50v27h100v-27c0-28-22-50-50-50Z" fill="#7AF1B5" opacity="0.2"/><path d="M210 350c0-65 53-118 118-118h244c65 0 118 53 118 118v58H210v-58Z" fill="#0D1B30"/><path d="M291 262h19v55h-19zM404 262h19v55h-19zM520 262h19v55h-19z" fill="#56B4FF" opacity="0.65"/></svg>