<svg xmlns="http://www.w3.org/2000/svg" width="800" height="520" viewBox="0 0 800 520" fill="none"><rect width="800" height="520" rx="40" fill="#08111f"/><path d="M210 420c0-45 37-82 82-82h296c45 0 82 37 82 82v24H210v-24Z" fill="#0f1d33"/><path d="M288 264c-24 0-44 20-44 44v48h336v-48c0-24-20-44-44-44H288Z" fill="#7AF1B5" opacity="0.18"/><path d="M426 264h26v-78h-26z" fill="#56B4FF"/><path d="M496 264h26v-50h-26z" fill="#56B4FF" opacity="0.8"/><path d="M336 264h26v-30h-26z" fill="#56B4FF" opacity="0.7"/><path d="M320 264h170v20H320z" fill="#fff" opacity="0.1"/><circle cx="400" cy="176" r="72" fill="#56B4FF" opacity="0.35"/><circle cx="560" cy="132" r="38" fill="#7AF1B5" opacity="0.18"/><circle cx="250" cy="142" r="32" fill="#7AF1B5" opacity="0.18"/><path d="M355 112h90v30h-90z" fill="#fff" opacity="0.15"/><path d="M250 408h52v38h-52zM496 408h52v38h-52z" fill="#56B4FF" opacity="0.8"/></svg>